<svg width="155" height="22" viewBox="0 0 155 22" fill="none" xmlns="http://www.w3.org/2000/svg">
<path d="M11.7188 4.32812L15.625 8.23438H3.90625V14.0938H11.7188L15.625 18H0V4.32812H11.7188ZM19.5312 13.1172V18H15.625V4.32812H19.5312V9.21094H27.3438V4.32812H31.25V18H27.3438V13.1172H19.5312ZM43.9453 11.1641V8.23438H36.1328V11.1641H43.9453ZM36.1328 15.0703V18H32.2266V4.32812H47.8516V18H43.9453V15.0703H36.1328ZM52.7344 18H48.8281V4.32812H52.7344V18ZM65.4297 12.1406V4.32812H69.3359V21.9062L57.6172 10.1875V18H53.7109V0.421875L65.4297 12.1406ZM74.2188 4.32812H78.125V14.0938H89.8438L85.9375 18H74.2188V4.32812ZM88.8672 4.32812H104.492V18H88.8672V4.32812ZM92.7734 8.23438V14.0938H100.586V8.23438H92.7734ZM109.375 11.1641H117.188V8.23438H109.375V11.1641ZM109.375 11.1641V18H105.469V4.32812H121.094V15.0703H118.164L123.047 19.9531H118.164L109.375 11.1641ZM122.07 9.21094H125.977V14.0938H133.789V8.23438H122.07L125.977 4.32812H137.695V18H122.07V9.21094ZM154.297 4.32812L150.391 8.23438H142.578V9.21094H154.297V18H138.672L142.578 14.0938H150.391V13.1172H138.672V4.32812H154.297Z" fill="white"/>
</svg>
